<svg xmlns="http://www.w3.org/2000/svg" viewBox="0 0 512 512">
  <defs>
    <linearGradient id="grad1" x1="0%" y1="0%" x2="100%" y2="100%">
      <stop offset="0%" style="stop-color:#06b6d4;stop-opacity:1" />
      <stop offset="100%" style="stop-color:#3b82f6;stop-opacity:1" />
    </linearGradient>
    <filter id="glow">
      <feGaussianBlur stdDeviation="8" result="coloredBlur"/>
      <feMerge>
        <feMergeNode in="coloredBlur"/>
        <feMergeNode in="SourceGraphic"/>
      </feMerge>
    </filter>
  </defs>
  
  <!-- Background (Optional: for App Icons) -->
  <rect width="512" height="512" rx="100" fill="#0f172a" />

  <!-- Warp Gate Ring -->
  <path d="M256 80c-97.2 0-176 78.8-176 176s78.8 176 176 176 176-78.8 176-176S353.2 80 256 80zm0 320c-79.4 0-144-64.6-144-144s64.6-144 144-144 144 64.6 144 144-64.6 144-144 144z" 
        fill="url(#grad1)" filter="url(#glow)" opacity="0.8"/>

  <!-- Speed Core -->
  <path d="M368 256l-160-96v64H144v64h64v64l160-96z" fill="#ffffff"/>
  
  <!-- Motion Lines -->
  <path d="M120 190h-40v10h40v-10zm-20 40H80v10h20v-10zm0 80H80v10h20v-10zm20 40h-40v10h40v-10z" fill="#06b6d4" opacity="0.6"/>
</svg>
